<svg width="518" height="315" viewBox="0 0 518 315" fill="none" xmlns="http://www.w3.org/2000/svg">
<path d="M253.858 31.516C281.22 29.686 303.627 43.2011 314.427 68.3882C309.239 68.8004 300.754 68.58 295.381 68.5732L262.27 68.5517C257.965 68.5517 250.648 68.3346 246.531 68.7022C246.323 65.3739 246.33 62.0356 246.552 58.7083C243.686 60.1325 241.053 61.3737 238.498 63.3288C230.442 69.4929 227.106 78.572 225.708 88.2568C232.071 88.4567 239.971 88.2077 246.502 88.2082L292.546 88.1495L308.701 88.0911C311.632 88.0807 316.117 87.9544 318.911 88.3127C318.99 89.0793 319 89.8421 319.015 90.6123C319.177 105.694 313.463 120.246 303.081 131.184C293.029 141.626 278.094 149.738 263.424 150.014C251.335 150.397 242.599 148.844 231.565 143.236C220.595 137.66 208.316 125.191 204.608 113.301C207.096 112.96 211.112 113.035 213.709 113.037L227.138 113.055L272.527 113.059C272.575 116.188 272.686 119.419 272.425 122.53C285.793 118.172 291.054 105.838 293.325 93.1447C285.456 93.5053 201.866 93.9242 200.459 93.3165C200.333 93.0245 200.167 92.541 200.15 92.2207C198.839 67.3499 215.168 43.5288 238.492 35.0951C244.149 33.0498 248.022 32.3836 253.858 31.516Z" fill="#FDFCFD"/>
<path d="M191.837 164.051C192.79 163.973 194.746 164.094 195.772 164.127C195.943 169.089 195.824 174.43 195.849 179.428C195.87 183.821 196.057 189.812 195.615 194.114C200.091 190.333 203.78 187.7 209.718 186.606C216.196 185.404 222.886 186.806 228.335 190.508C234.021 194.382 237.886 200.402 239.043 207.185C240.352 214.5 238.614 220.538 234.448 226.535C226.871 235.448 215.822 239.26 204.63 234.702C198.361 232.146 193.381 227.178 190.808 220.913C187.861 213.803 189.143 199.321 188.962 191.279C188.884 187.824 188.617 166.845 189.539 164.624C190.143 164.053 190.949 164.123 191.837 164.051ZM215.617 229.683C225.733 228.863 233.255 219.973 232.392 209.858C231.529 199.742 222.609 192.256 212.501 193.163C202.454 194.065 195.027 202.921 195.884 212.975C196.742 223.028 205.563 230.497 215.617 229.683Z" fill="#FDFCFD"/>
<path d="M439.502 186.326C444.73 185.913 449.953 187.194 454.397 189.979C460.184 193.595 464.266 199.393 465.72 206.061C466.229 208.34 467.283 212.451 466.021 214.44C465.528 214.851 465.118 214.971 464.473 214.984C450.734 215.269 436.894 214.743 423.162 215.093C425.371 224.507 434.479 231.882 444.239 229.589C446.298 228.696 449.237 226.29 450.861 226.323C451.759 226.341 454.331 229.278 454.875 230.222C454.824 230.625 454.865 230.882 454.561 231.193C446.735 239.206 433.07 237.694 424.981 230.892C419.839 226.631 416.634 220.472 416.096 213.812C414.871 199.416 425.077 187.387 439.502 186.326ZM422.75 207.876C429.359 208.1 436.368 207.982 443.007 207.973C446.844 207.987 456.071 208.242 459.473 207.772C456.013 198.763 450.269 192.645 439.876 193.154C434.221 193.943 430.682 195.422 426.923 200.086C424.748 202.786 424.339 205.316 422.75 207.876Z" fill="#FDFCFD"/>
<path d="M295.573 186.326C299.979 185.999 304.393 186.856 308.356 188.809C315.238 192.16 320.962 199.42 322.085 207.077C322.373 209.039 322.927 212.75 322.067 214.476C321.362 214.992 321.048 215.01 320.135 215.02C306.542 215.183 292.869 214.777 279.279 215.096C279.476 215.814 279.689 216.529 279.916 217.238C282.646 225.507 292.338 232.147 300.902 229.337C302.824 228.201 304.769 227.101 306.735 226.04C307.754 226.736 310.121 228.681 310.655 229.764C310.721 230.576 310.769 230.988 310.101 231.66C302.41 239.379 288.557 237.359 280.779 230.615C275.703 226.244 272.592 220.018 272.144 213.332C271.117 199.272 281.548 187.333 295.573 186.326ZM279.135 207.939L297.824 207.973C302.703 207.981 311.07 208.25 315.673 207.861C312.764 201.297 310.88 197.136 303.426 194.167C301.899 193.558 298.942 192.908 297.331 193.156C286.885 193.743 282.56 198.698 279.135 207.939Z" fill="#FDFCFD"/>
<path d="M350.765 186.325C356.254 185.859 361.74 187.231 366.364 190.225C372.125 193.962 376.139 199.862 377.503 206.593C377.922 208.671 378.636 212.918 377.49 214.656C376.053 215.675 340.438 214.465 335.026 215.212L334.745 215.253C334.798 215.444 334.851 215.634 334.907 215.824C336.409 220.978 339.032 224.937 343.866 227.542C347.649 229.582 352.364 230.655 356.573 229.417C358.09 228.627 360.688 226.897 362.228 225.94C363.187 226.63 366.371 229.311 366.245 230.325C365.777 234.056 356.962 236.367 354.294 236.573C347.854 237.049 341.485 234.971 336.563 230.787C331.11 226.06 328.196 220.309 327.688 213.093C327.248 206.431 329.449 199.865 333.812 194.813C338.142 189.882 344.225 186.836 350.765 186.325ZM334.588 207.909C341.05 207.971 347.513 207.994 353.975 207.98C358.401 207.991 367.057 208.27 371.134 207.949C368.046 199.808 362.059 192.482 352.417 193.152C342.517 193.741 337.709 199.067 334.588 207.909Z" fill="#FDFCFD"/>
<path d="M110.088 187.202C111.043 197.158 109.782 207.369 110.118 217.357C110.236 220.867 111.6 224.025 114.212 226.4C116.677 228.642 119.752 229.662 123.061 229.496C128.876 229.204 133.602 224.825 134.595 219.098C135.131 216.007 134.824 212.541 134.809 209.406C134.796 206.63 134.068 188.937 135.675 187.487C136.78 186.491 140.355 187.044 141.806 187.16C142.01 192.516 141.832 198.864 141.814 204.286C141.755 214.912 141.792 225.537 141.924 236.162C142.184 247.314 136.987 256.585 125.195 258.655C124.15 258.84 123.083 259.12 122.023 258.948C121.523 258.245 121.104 254.237 121.404 253.645C122.039 252.395 128.479 250.495 130.155 249.089C136.328 243.91 134.063 238.599 134.913 231.895C129.251 235.838 123.921 237.408 117.035 235.551C112.345 234.332 108.35 231.26 105.967 227.039C104.717 224.873 103.886 222.492 103.518 220.018C103.007 216.68 102.814 190.328 103.562 187.591C104.374 187.013 104.536 187.185 105.69 187.087C106.755 186.994 108.94 187.152 110.088 187.202Z" fill="#FDFCFD"/>
<path d="M71.8136 165.555C77.9803 165.147 87.193 165.431 93.5205 165.477C93.9295 168.026 93.7492 169.85 93.5673 172.392C86.1373 173.155 77.7431 171.93 70.1739 172.794C60.7803 173.866 56.1972 185.335 62.1783 192.521C66.6511 197.895 72.1998 197.14 78.4098 197.323C93.9743 197.562 102.814 216.213 92.8144 228.291C88.3332 233.704 83.9778 234.807 77.2916 235.502C75.9197 235.289 71.7737 235.414 70.1632 235.43L55.9767 235.589C55.9504 233.912 55.7685 230.524 56.6725 229.203C59.5493 227.835 75.5795 229.782 79.9764 228.411C83.9697 227.166 85.6135 226.378 88.2667 222.638C90.2636 219.824 90.3572 217.151 89.8169 213.85C87.1477 203.188 78.1733 204.328 69.8324 203.871C61.4215 203.41 54.4654 196.601 52.9357 188.289C52.0021 183.134 53.1656 177.819 56.1679 173.526C60.6475 167.204 65.1163 166.74 71.8136 165.555Z" fill="#FDFCFD"/>
<path d="M161.448 186.547C166.826 185.816 173.933 186.855 179.46 186.495C181.107 186.387 180.617 191.543 180.091 192.675C178.335 193.986 164.442 192.621 161.104 193.571C156.954 194.753 155.944 196.626 155.893 201.198C155.809 208.806 165.003 206.755 169.929 207.413C186.042 209.565 187.135 232.579 169.834 235.471L150.161 235.594C150.076 234.079 149.948 230.481 150.677 229.242C155.056 226.272 178.659 234.692 175.051 219.149C173.605 212.806 166.299 214.627 161.712 214.085C145.149 212.128 143.878 189.912 161.448 186.547Z" fill="#FDFCFD"/>
<path d="M381.936 187.125C384.999 186.852 390.083 186.99 393.305 186.989L414.195 187.014C412.606 190.811 407.227 199.591 404.933 203.516C400.071 211.83 395.114 220.829 390.025 228.954L402.851 228.828C403.926 228.817 410.844 228.518 411.509 229.325C412.121 230.072 411.797 234.093 411.539 235.236C409.528 235.764 403.931 235.436 401.655 235.507C394.406 235.731 385.561 235.093 378.461 235.699C380.957 230.703 384.655 224.645 387.493 219.698C392.377 211.124 397.345 202.596 402.393 194.117C396.27 193.966 387.018 194.383 381.435 193.909C381.423 192.256 381.132 188.325 381.936 187.125Z" fill="#FDFCFD"/>
<path d="M269.381 186.069C270.074 185.994 270.197 185.995 270.883 186.111C271.328 186.572 271.548 186.722 271.535 187.417C271.412 193.788 271.052 192.636 265.445 193.726C262.653 194.268 259.139 196.407 257.103 198.514C254.936 200.777 253.385 203.561 252.603 206.596C251.506 210.704 251.735 216.813 251.739 221.146C251.731 225.882 251.752 230.617 251.803 235.352C250.548 235.487 248.873 235.518 247.583 235.58C246.516 235.755 246.323 235.814 245.497 235.205C244.649 233.535 245.036 224.801 244.998 222.241C244.851 212.411 244.171 202.648 251.126 194.73C256.147 189.016 261.934 186.64 269.381 186.069Z" fill="#FDFCFD"/>
<path d="M281.519 245.486C290.43 245.489 292.321 258.538 282.847 260.686C281.294 260.656 280.191 260.669 278.855 259.965C274.442 257.637 273.974 250.469 277.609 247.256C278.929 246.09 279.898 245.931 281.519 245.486ZM282.687 258.91C286.403 257.61 287.46 254.331 286.35 250.571C285.626 248.122 283.871 247.617 281.494 247.498C279.933 247.924 279.283 248.078 278.4 249.595C276.85 252.259 277.247 256.557 280.052 258.255C280.57 258.571 282.05 258.794 282.687 258.91Z" fill="#FDFCFD"/>
<path d="M246.918 245.716C248.064 245.426 250.251 245.86 251.299 246.427C254.963 248.408 255.471 254.228 253.574 257.563C252.492 259.466 251.013 260.126 248.971 260.632C241.863 260.979 239.271 254.815 242.156 248.68C243.018 246.847 245.018 246.115 246.918 245.716ZM248.29 258.891C252.112 257.672 253.056 254.572 252.197 250.727C251.685 248.43 249.672 247.504 247.387 247.51C245.853 247.84 245.219 247.971 244.301 249.38C242.598 251.995 243.028 256.338 245.692 258.18C246.21 258.539 247.636 258.775 248.29 258.891Z" fill="#FDFCFD"/>
<path d="M449.517 245.938C451.692 246.028 456.25 245.653 457.96 246.824C461.832 249.477 461.602 255.744 458.706 258.906C456.217 260.338 452.289 260.113 449.277 260.278C449.107 257.811 448.708 247.672 449.517 245.938ZM451.009 257.94C453.382 258.173 454.758 258.459 457.064 257.798C459.427 255.015 459.945 248.63 455.056 247.832C454.133 247.682 452.997 247.744 452.054 247.761C451.611 247.951 451.181 248.017 451.11 248.375C450.579 251.132 451.133 255.172 451.009 257.94Z" fill="#FDFCFD"/>
<path d="M302.007 245.486C303.917 245.856 307.116 246.312 307.589 248.94C307.696 249.54 307.713 250.266 307.359 250.781C306.019 250.654 305.111 248.601 303.909 247.672C302.463 247.109 300.502 247.735 299.081 248.165C298.234 249.483 298.039 249.894 297.619 251.6C296.544 255.712 300.136 260.76 304.471 258.025C305.427 257.423 306.831 255.325 305.791 254.28C304.843 253.878 303.236 253.997 302.146 254.004C301.934 253.741 301.893 253.567 301.762 253.253L302.015 252.804C303.393 252.096 306.408 252.437 308.019 252.531C308.153 254.134 308.492 258.622 307.837 259.859C305.599 260.067 306.671 259.093 303.525 260.358C299.991 261.446 296.114 259.424 295.472 255.783C294.397 249.687 296.132 246.814 302.007 245.486Z" fill="#FDFCFD"/>
<path d="M365.488 245.928C365.822 245.911 366.156 245.902 366.49 245.899C368.213 245.891 373.592 245.908 374.26 247.16C377.844 253.887 371.425 254.089 367.82 253.846C366.002 254.519 367.603 258.79 366.156 260.207L365.691 260.169C364.924 258.699 364.752 247.518 365.488 245.928ZM367.006 252.27C368.931 252.315 370.982 252.48 372.813 251.865C373.127 250.774 373.395 249.803 372.834 248.753C371.506 247.487 368.888 247.74 366.961 247.696L367.006 252.27Z" fill="#FDFCFD"/>
<path d="M232.941 245.293C234.833 246.426 233.829 252.923 234.11 255.215C234.278 256.591 234.308 259.777 232.48 259.908C230.576 259.01 226.424 251.586 225.106 249.402C224.891 251.481 224.736 259.096 224.319 260.384L223.511 260.26C222.551 258.722 222.329 246.752 223.958 245.903C226.199 246.574 230.066 253.932 232.015 256.452C232.295 253.297 231.767 247.29 232.941 245.293Z" fill="#FDFCFD"/>
<path d="M346.208 245.468C348.11 245.366 351.155 246.129 351.805 248.266C351.985 248.862 352.22 249.391 351.927 249.931C350.222 249.697 348.209 247.099 346.173 247.307C344.786 247.449 344.058 248.601 344.141 249.902C345.889 252.563 356.125 252.073 351.838 258.895C351.031 260.181 348.988 260.487 347.619 260.694C345.141 260.608 341.592 259.755 341.933 255.996C341.966 255.642 342.257 255.599 342.581 255.449C344.141 256.089 345.153 260.198 348.487 258.789C349.686 258.28 350.692 257.582 350.713 256.173C348.983 253.39 339.928 254.103 342.252 248.069C342.844 246.536 344.794 245.988 346.208 245.468Z" fill="#FDFCFD"/>
<path d="M213.904 245.512C214.592 245.725 214.674 245.784 215.295 246.165C215.822 247.266 215.596 255.353 215.576 257.106C215.562 258.265 215.4 259.527 214.484 260.365L213.918 260.213C212.901 258.938 213.117 255.699 213.053 253.857C210.652 253.883 208.52 253.888 206.125 253.769C206.04 255.702 206.185 257.296 206.037 259.393C205.748 259.796 205.617 259.821 205.187 260.066L204.712 259.892C203.851 258.336 203.651 247.103 205.466 245.985C206.53 246.918 206.121 250.366 206.078 251.823C207.289 251.899 212.441 252.632 212.814 251.102C213.251 249.308 212.866 247.251 213.904 245.512Z" fill="#FDFCFD"/>
<path d="M191.49 245.504C194.041 246.03 197.305 246.971 196.805 250.427C195.604 250.308 193.599 247.368 191.314 247.526C182.217 248.154 188.853 264.428 194.416 257.202C195.016 256.058 195.476 254.813 196.913 254.905C197.937 256.493 196.315 258.712 194.924 259.441C185.791 264.233 183.767 255.125 185.657 248.379C187.572 246.26 188.788 246.038 191.49 245.504Z" fill="#FDFCFD"/>
<path d="M381.09 245.541C383.631 246.027 385.468 254.986 386.548 257.615C387.628 254.776 389.388 247.232 391.417 245.8C392.229 245.759 391.874 245.647 392.512 246.141C392.646 247.104 392.084 248.205 391.71 249.156C391.103 251.416 388.619 259.639 386.601 260.383C384.34 259.571 380.606 247.658 381.09 245.541Z" fill="#FDFCFD"/>
<path d="M168.321 260.144C168.281 256.286 168.159 252.451 168.03 248.605C167.912 245.086 172.27 246.089 174.464 246.269C176.338 246.423 178.273 246.543 180.198 246.851C177.501 247.728 172.943 247.814 169.957 248.016L170.148 251.791C171.182 252.055 173.868 252.397 175.041 252.575L174.802 253.268C174.248 253.495 173.932 253.597 173.354 253.753L169.993 253.829C169.969 255.446 170.032 256.542 170.16 258.133C172.753 258.386 176.091 258.249 178.552 258.583L178.789 259.014L178.548 259.322C176.825 259.714 170.601 259.924 168.321 260.144Z" fill="#FDFCFD"/>
<path d="M325.219 260.207C325.184 258.694 324.63 247.605 325.66 246.368C326.274 245.629 330.981 246.308 332.509 246.5C333.025 247.126 333.043 246.95 333.101 247.618L326.947 247.934C327.018 249.175 327.063 250.804 327.253 252C328.588 252.12 330.571 252.239 331.834 252.52L331.93 252.926C331.431 253.467 330.673 253.536 329.916 253.718L327.051 253.778C327.048 255.018 326.987 256.939 327.078 258.12C328.808 258.269 330.544 258.36 332.281 258.396C331.869 259.408 331.512 259.299 330.42 259.588C328.73 259.744 326.912 260 325.219 260.207Z" fill="#FDFCFD"/>
<path d="M434.706 246.036C436.497 245.861 441.791 245.593 442.944 246.919L442.684 247.284C441.421 247.907 440.101 247.9 438.697 248.001C438.864 251.004 438.73 254.713 438.697 257.769C438.589 259.325 438.758 259.419 437.853 260.35L437.349 260.312C436.024 258.589 436.37 250.234 436.358 247.711C434.683 247.791 433.302 248.057 431.949 247.006L432.033 246.649C432.872 246.023 433.651 246.091 434.706 246.036Z" fill="#FDFCFD"/>
<path d="M153.006 246.194C155.759 245.918 159.038 245.627 161.648 246.657L161.863 246.985C160.849 247.885 159.065 247.92 157.738 248.043C157.853 250.592 158.042 257.753 157.146 259.876L156.65 260.273L156.199 260.131C155.183 257.738 155.455 250.59 155.28 247.616C153.741 247.87 152.385 248.187 151.133 247.027L151.164 246.563C152.017 246.063 151.906 246.22 153.006 246.194Z" fill="#FDFCFD"/>
<path d="M155.28 247.615C153.741 247.87 152.385 248.187 151.133 247.027L151.164 246.563C152.017 246.062 151.906 246.219 153.006 246.194L153.2 246.981C153.814 247.34 154.136 247.252 154.882 247.235L155.28 247.615Z" fill="#C8C1D1"/>
<path d="M261.752 245.754C262.096 245.809 262.605 245.951 262.959 246.038C263.093 246.189 263.252 246.369 263.437 246.58C263.616 249.591 263.783 255.343 263.717 258.197C265.362 258.23 269.307 258.144 270.612 258.956L270.582 259.503L269.874 259.794C267.043 259.862 264.218 260.019 261.398 260.259C261.396 257.248 261.125 248.287 261.752 245.754Z" fill="#FDFCFD"/>
<path d="M401.702 246.023C403.043 245.814 407.272 245.725 408.188 246.909L407.922 247.314C406.733 247.894 405.15 247.809 403.797 247.846C403.88 251.094 403.602 255.799 403.534 259.187C403.551 259.602 403.379 259.736 403.126 260.088L402.623 260.126C401.543 258.714 401.627 249.631 401.854 247.658C400.144 247.705 398.665 247.844 397.059 247.154L397.279 246.807C399.009 246.069 399.778 246.23 401.702 246.023Z" fill="#FDFCFD"/>
<path d="M420.807 245.803L421.275 246.152C421.991 247.351 421.887 256.278 421.849 258.097C423.698 258.337 427.525 257.983 428.863 258.876L428.855 259.352L428.276 259.767C425.512 259.883 422.75 260.032 419.988 260.212C419.849 257.472 419.563 248.157 420.807 245.803Z" fill="#FDFCFD"/>
<path d="M315.807 245.773C316.938 246.693 316.9 258.514 316.07 259.896C315.764 259.716 315.59 259.701 315.519 259.395C315.076 257.447 315.226 247.313 315.807 245.773Z" fill="#FDFCFD"/>
<path d="M332.281 258.396C333.293 258.46 334.259 258.417 335.117 258.93L335.011 259.209C333.511 259.682 331.993 259.588 330.42 259.588C331.513 259.3 331.869 259.409 332.281 258.396Z" fill="#C8C1D1"/>
<path d="M331.833 252.521C332.769 252.517 333.753 252.429 334.595 252.817L334.456 253.122C332.789 253.724 331.676 253.701 329.916 253.719C330.672 253.536 331.431 253.468 331.929 252.927L331.833 252.521Z" fill="#C8C1D1"/>
<path d="M175.043 252.575C175.99 252.557 176.772 252.435 177.589 252.858C176.996 253.827 174.415 253.771 173.355 253.754C173.934 253.597 174.249 253.496 174.803 253.268L175.043 252.575Z" fill="#C8C1D1"/>
<path d="M332.51 246.5C334.111 246.531 335.502 246.506 337.08 246.835C335.464 247.281 334.763 247.442 333.102 247.618C333.043 246.95 333.026 247.127 332.51 246.5Z" fill="#C8C1D1"/>
</svg>
